<?xml version="1.0" encoding="UTF-8" standalone="no"?>
<!DOCTYPE svg PUBLIC "-//W3C//DTD SVG 1.1//EN" "http://www.w3.org/Graphics/SVG/1.1/DTD/svg11.dtd">
<svg width="100%" height="100%" viewBox="0 0 46 68" version="1.1" xmlns="http://www.w3.org/2000/svg" xmlns:xlink="http://www.w3.org/1999/xlink" xml:space="preserve" xmlns:serif="http://www.serif.com/" style="fill-rule:evenodd;clip-rule:evenodd;stroke-linejoin:round;stroke-miterlimit:2;">
    <g transform="matrix(1,0,0,1,-14502.7,-2184.74)">
        <g transform="matrix(0.997049,0,0,5.35581,14394,2162.02)">
            <g transform="matrix(0.139153,0,0,0.0259049,-0.264483,1.70414)">
                <path d="M1114.79,222.965L1114.79,372.466L982.98,504.273L982.98,555.116L950,588.096L916.911,555.007L916.911,504.164L785.213,372.466L785.213,156.202L916.911,156.202L916.911,97.977L982.98,97.977L982.98,156.202L1088.11,156.202L1022.05,222.271L851.282,222.271L851.282,345.099L916.911,410.729L916.911,287.34L982.98,287.34L982.98,410.838L1048.72,345.099L1048.72,289.033L1114.79,222.965Z" style="fill:white;"/>
            </g>
        </g>
    </g>
</svg>
