<?xml version="1.0" encoding="UTF-8" standalone="no"?>
<!DOCTYPE svg PUBLIC "-//W3C//DTD SVG 1.1//EN" "http://www.w3.org/Graphics/SVG/1.1/DTD/svg11.dtd">
<svg width="100%" height="100%" viewBox="0 0 136 49" version="1.1" xmlns="http://www.w3.org/2000/svg" xmlns:xlink="http://www.w3.org/1999/xlink" xml:space="preserve" xmlns:serif="http://www.serif.com/" style="fill-rule:evenodd;clip-rule:evenodd;stroke-linejoin:round;stroke-miterlimit:2;">
    <g transform="matrix(1,0,0,1,-196.372,-59.7086)">
        <g transform="matrix(0.425837,0,0,2.28745,70.9382,-41.6472)">
            <g transform="matrix(1,0,0,0.186162,-1679.9,-1.11697)">
                <path d="M2037.78,358.104L2037.78,319.7L2025.82,319.7L2025.82,358.104L2037.78,358.104ZM2181.25,358.104L2205.28,358.104L2205.28,348.503L2193.21,348.503L2193.21,319.7L2181.25,319.7L2181.25,358.104ZM2157.28,319.7C2154.43,319.7 2152.45,321.675 2152.45,324.473L2152.45,353.331C2152.45,356.129 2154.43,358.104 2157.28,358.104L2178.13,358.104L2178.13,348.503L2164.47,348.503L2164.47,329.356L2176.26,329.356L2178.13,324.473L2178.13,319.7L2157.28,319.7ZM2009.58,345.156L2021.38,345.156L2021.38,335.555L2009.58,335.555L2009.58,329.356L2021.38,329.356L2023.24,324.473L2023.24,319.7L1997.57,319.7L1997.57,358.104L2009.58,358.104L2009.58,345.156ZM2113.55,329.356L2113.55,358.104L2125.56,358.104L2125.56,329.356L2131.32,329.356L2133.24,324.473L2133.24,319.7L2106.36,319.7L2106.36,329.356L2113.55,329.356ZM2086.99,333.635L2086.99,319.7L2075.03,319.7L2075.03,358.104L2086.99,358.104L2086.99,343.236L2091.82,343.236L2091.82,358.104L2103.78,358.104L2103.78,319.7L2091.82,319.7L2091.82,333.635L2086.99,333.635ZM2224.65,319.7L2224.65,348.503L2219.88,348.503L2219.88,319.7L2207.86,319.7L2207.86,353.331C2207.86,356.129 2209.84,358.104 2212.69,358.104L2236.66,358.104L2236.66,319.7L2224.65,319.7ZM2264.86,358.104C2267.72,358.104 2269.69,356.129 2269.69,353.331L2269.69,343.62C2269.69,340.767 2267.39,338.956 2264.75,338.956L2264.75,337.914C2267.39,337.914 2269.69,336.104 2269.69,333.306L2269.69,324.473C2269.69,321.675 2267.72,319.7 2264.86,319.7L2240.89,319.7L2240.89,358.104L2264.86,358.104ZM2046.83,319.7C2043.98,319.7 2042,321.675 2042,324.473L2042,353.331C2042,356.129 2043.98,358.104 2046.83,358.104L2070.81,358.104L2070.81,335.61L2058.79,335.61L2058.79,348.503L2054.02,348.503L2054.02,329.356L2068.67,329.356L2070.59,324.473L2070.59,319.7L2046.83,319.7ZM2252.9,343.236L2257.68,343.236L2257.68,348.503L2252.9,348.503L2252.9,343.236ZM2257.68,333.635L2252.9,333.635L2252.9,329.356L2257.68,329.356L2257.68,333.635ZM1982.73,244.016C1977.85,244.016 1974.46,247.398 1974.46,252.19L1974.46,301.612C1974.46,306.404 1977.85,309.787 1982.73,309.787L2023.79,309.787L2023.79,271.264L2003.21,271.264L2003.21,293.344L1995.04,293.344L1995.04,260.552L2020.13,260.552L2023.41,252.19L2023.41,244.016L1982.73,244.016ZM2087.12,309.787L2128.27,309.787L2128.27,293.344L2107.6,293.344L2107.6,244.016L2087.12,244.016L2087.12,309.787ZM2038.36,244.016L2029.15,301.612L2029.15,309.787L2049.63,309.787L2050.95,296.539L2059.97,296.539L2061.19,309.787L2081.76,309.787L2081.76,301.612L2072.56,244.016L2038.36,244.016ZM2140.02,244.016L2130.81,301.612L2130.81,309.787L2151.29,309.787L2152.61,296.539L2161.63,296.539L2162.85,309.787L2183.43,309.787L2183.43,301.612L2174.22,244.016L2140.02,244.016ZM2213.12,267.881L2211.43,267.881L2207.1,244.016L2187.56,244.016L2187.56,252.848L2195.17,275.022L2185.96,301.988L2185.96,309.787L2206.54,309.787L2211.43,284.324L2213.12,284.324L2218,309.787L2238.58,309.787L2238.58,301.988L2229.37,275.022L2236.98,252.848L2236.98,244.016L2217.44,244.016L2213.12,267.881ZM2256.24,291.841L2256.24,309.787L2276.73,309.787L2276.73,291.841L2292.8,252.19L2292.8,244.016L2272.31,244.016L2267.24,269.572L2265.74,269.572L2260.76,244.016L2240.18,244.016L2240.18,252.19L2256.24,291.841ZM2052.45,280.096L2054.33,260.552L2056.58,260.552L2058.46,280.096L2052.45,280.096ZM2154.11,280.096L2155.99,260.552L2158.25,260.552L2160.12,280.096L2154.11,280.096Z" style="fill:white;fill-rule:nonzero;"/>
            </g>
        </g>
    </g>
</svg>
